<svg xmlns="http://www.w3.org/2000/svg" version="1.1" viewBox="0 0 2000 2000" width="1280" height="1280">
<path fill="#6bc8f2" transform="translate(1304,502)"/>
<path fill="#6bc8f2" transform="translate(810,563)" d=""/>
<path fill="#6bc8f2" transform="translate(681,502)" d="m0 0h20l19 1 17 3 18 7 25 10 6 4v4l-5 4-11 5-15 12-8 7-9 9-2 1-13-1-11-2-12-1h-17l-14 1-24 5-17 7-13 8-11 4-5 5-17 12-15 14-11 10-7 8-7 7-11 16-7 9-3 4-4 8-9 14-11 23-7 14-6 15-8 18-13 42-7 25-7 40-5 32-3 34v73l4 40 8 47 4 22 8 27 9 30 13 31 6 16 10 19 9 16 14 22 14 18 11 13 12 13 20 18 13 9 11 8 11 6 4 5v65l-6-1-24-11-15-10-12-7-15-12-8-6-8-9-8-6-11-12-7-6-8-11-7-8-8-12-9-12-6-9-7-12-9-16-16-32-9-21-7-17-5-18-11-33-5-25-7-29-4-22-6-65-1-19v-45l2-26 5-54 4-25 9-36 4-20 12-36 4-14 7-17 7-15 5-13 10-18 6-12 11-18 5-9 7-8 14-21 10-11 7-9 5-4 7-9 11-10 8-7 11-9 18-13 12-6 10-7 12-6 12-4 15-6 14-4 13-2z"/>
<path fill="#6bc8f2" transform="translate(881,566)"/>
</svg>