<?xml version="1.0" encoding="UTF-8"?>
<svg version="1.1" viewBox="0 0 2000 2000" width="1280" height="1280" xmlns="http://www.w3.org/2000/svg">
<path fill="#002d46" transform="translate(1304,502)" d="m0 0h13l35 3 18 4 16 5 21 7 16 8 22 12 15 11 11 8 14 12 9 8 5 6 8 7 9 11 12 15 12 17 5 7 6 11 10 17 8 16 8 15 10 26 7 19 6 22 7 23 4 21 8 54 2 22v70l-3 31-7 45-4 20-10 33-5 18-8 20-5 14-16 32-11 21-8 13-10 14-9 12-11 13-9 11-19 19-22 18-8 6-21 14-16 8-17 8-29 10-19 6-20 3-39 4-30 1-319 1-5-1-1-10-1-28v-414l-1-213v-35l1-1h335l1 1v54h-277v194h94l2 1v52l-1 1-95 1v22l-1 9h96l1 1v55l-53 1h-42v48l-1 206 269-1 37-1 28-4 20-6 17-6 11-3 19-10 8-4 7-4 9-7 10-7 7-6h2l2-4 15-13 7-8 10-11 13-18 6-8 5-10 7-9 13-27 8-16 15-40 6-25 8-34 3-21 3-43v-60l-3-41-3-21-15-61-11-28-6-17-9-16-9-19-7-10-9-15-16-21-5-6-6-5-7-9-20-18-19-13-10-6-18-10-11-5-19-6 1 5v615l-1 66-5 4-15 5-15 3-19 2-18 1h-167l-1-3v-524l1-2h55l1 1v163h98l1 1v54l-1 1h-32l-65-1-1 30h35l62 1 1 1v56h-96v177h123v-43l1-309v-365z"/>
<path fill="#002d46" transform="translate(810,563)" d="m0 0h7l12 3 13 7 10 9 11 7 18 18 13 20 6 12 10 32 1 4v189l-3 17-6 20-5 13-10 17-8 11-5 6-16 16-12 8-14 10-8 3 4 5 8 7 12 10 6 8 6 5 13 17 10 15 16 32 4 15 6 24 2 14v245l325-1 62-1 36-3 20-4 51-15 17-8 16-7 20-12 19-13 16-12 11-10 8-7 7-8 16-16 1-2h2l2-4 14-18 14-23 8-12h3l-3 7-15 29-6 12-6 9-8 14-11 16-10 13-12 14-7 8-28 28-30 23-8 4-11 8-16 8-11 6-12 6-18 6-24 9-16 4-26 4-22 3-27 2h-396l-1-1-1-9-2-293-4-25-5-12-10-19-7-11-7-9-6-8-13-13-4-5-11-8-8-7-20-12-15-7v-37l2-4 15-7 20-6 32-17 10-9 9-7 6-9 7-10 5-11 3-14 1-9v-175l-3-20-4-11-13-17-17-10-8-2h-13l-23 5-19 6-13 4-10 6-1 178-1 463v60l1 3v31l25-5 14-6 4-1 19 14 11 9 4 3 10 5 4 4-1 5-16 7-8 5-13 6-19 5-33 7h-58l-1-88v-672l1-86 1-3 6-2 7-1h47l15 3 10 3h7l22-22 16-6z"/>
<path fill="#002d46" transform="translate(681,502)" d="m0 0h20l19 1 17 3 18 7 25 10 6 4v4l-5 4-11 5-15 12-8 7-9 9-2 1-13-1-11-2-12-1h-17l-14 1-24 5-17 7-13 8-11 4-5 5-17 12-15 14-11 10-7 8-7 7-11 16-7 9-3 4-4 8-9 14-11 23-7 14-6 15-8 18-13 42-7 25-7 40-5 32-3 34v73l4 40 8 47 4 22 8 27 9 30 13 31 6 16 10 19 9 16 14 22 14 18 11 13 12 13 20 18 13 9 11 8 11 6 4 5v65l-6-1-24-11-15-10-12-7-15-12-8-6-8-9-8-6-11-12-7-6-8-11-7-8-8-12-9-12-6-9-7-12-9-16-16-32-9-21-7-17-5-18-11-33-5-25-7-29-4-22-6-65-1-19v-45l2-26 5-54 4-25 9-36 4-20 12-36 4-14 7-17 7-15 5-13 10-18 6-12 11-18 5-9 7-8 14-21 10-11 7-9 5-4 7-9 11-10 8-7 11-9 18-13 12-6 10-7 12-6 12-4 15-6 14-4 13-2z"/>
<path fill="#002d46" transform="translate(881,566)" d="m0 0 394 1v54l-1 1h-352l-5-8-7-11-14-19-11-12-5-5z"/>
</svg>
