<svg xmlns="http://www.w3.org/2000/svg" version="1.1" viewBox="0 0 2000 2000" width="1280" height="1280">
<path fill="#6bc8f2" transform="translate(1304,502)" d="m0 0h13l35 3 18 4 16 5 21 7 16 8 22 12 15 11 11 8 14 12 9 8 5 6 8 7 9 11 12 15 12 17 5 7 6 11 10 17 8 16 8 15 10 26 7 19 6 22 7 23 4 21 8 54 2 22v70l-3 31-7 45-4 20-10 33-5 18-8 20-5 14-16 32-11 21-8 13-10 14-9 12-11 13-9 11-19 19-22 18-8 6-21 14-16 8-17 8-29 10-19 6-20 3-39 4-30 1-319 1-5-1-1-10-1-28v-414l-1-213v-35l1-1h335l1 1v54h-277v194h94l2 1v52l-1 1-95 1v22l-1 9h96l1 1v55l-53 1h-42v48l-1 206 269-1 37-1 28-4 20-6 17-6 11-3 19-10 8-4 7-4 9-7 10-7 7-6h2l2-4 15-13 7-8 10-11 13-18 6-8 5-10 7-9 13-27 8-16 15-40 6-25 8-34 3-21 3-43v-60l-3-41-3-21-15-61-11-28-6-17-9-16-9-19-7-10-9-15-16-21-5-6-6-5-7-9-20-18-19-13-10-6-18-10-11-5-19-6 1 5v615l-1 66-5 4-15 5-15 3-19 2-18 1h-167l-1-3v-524l1-2h55l1 1v163h98l1 1v54l-1 1h-32l-65-1-1 30h35l62 1 1 1v56h-96v177h123v-43l1-309v-365z"/>
<path fill="#6bc8f2" transform="translate(810,563)" d=""/>
<path fill="#6bc8f2" transform="translate(681,502)" d=""/>
<path fill="#6bc8f2" transform="translate(881,566)" d="m0 0 394 1v54l-1 1h-352l-5-8-7-11-14-19-11-12-5-5z"/>
</svg>