<svg xmlns="http://www.w3.org/2000/svg" version="1.1" viewBox="0 0 2000 2000" width="1280" height="1280">
<path fill="#6bc8f2" transform="translate(1304,502)" d=""/>
<path fill="#6bc8f2" transform="translate(810,563)" d="m0 0h7l12 3 13 7 10 9 11 7 18 18 13 20 6 12 10 32 1 4v189l-3 17-6 20-5 13-10 17-8 11-5 6-16 16-12 8-14 10-8 3 4 5 8 7 12 10 6 8 6 5 13 17 10 15 16 32 4 15 6 24 2 14v245l325-1 62-1 36-3 20-4 51-15 17-8 16-7 20-12 19-13 16-12 11-10 8-7 7-8 16-16 1-2h2l2-4 14-18 14-23 8-12h3l-3 7-15 29-6 12-6 9-8 14-11 16-10 13-12 14-7 8-28 28-30 23-8 4-11 8-16 8-11 6-12 6-18 6-24 9-16 4-26 4-22 3-27 2h-396l-1-1-1-9-2-293-4-25-5-12-10-19-7-11-7-9-6-8-13-13-4-5-11-8-8-7-20-12-15-7v-37l2-4 15-7 20-6 32-17 10-9 9-7 6-9 7-10 5-11 3-14 1-9v-175l-3-20-4-11-13-17-17-10-8-2h-13l-23 5-19 6-13 4-10 6-1 178-1 463v60l1 3v31l25-5 14-6 4-1 19 14 11 9 4 3 10 5 4 4-1 5-16 7-8 5-13 6-19 5-33 7h-58l-1-88v-672l1-86 1-3 6-2 7-1h47l15 3 10 3h7l22-22 16-6z"/>
<path fill="#6bc8f2" transform="translate(681,502)" d=""/>
<path fill="#6bc8f2" transform="translate(881,566)" d=""/>
</svg>